# xmcd CD database file
#
# Track frame offsets:
#	150
#	23283
#	52030
#	82738
#	114643
#	136500
#	164190
#	185508
#	210473
#
# Disc length: 3201 seconds
#
# Revision: 0
# Processed by: cddbd v1.5.2PL0 Copyright (c) Steve Scherf et al.
# Submitted via: CDex 1.70beta2
#
DISCID=6c0c7f09
DTITLE=The Jazz Networks - Straight To The Standards
DYEAR=1991
DGENRE=Jazz
TTITLE0=Bohemia After Dark
TTITLE1=Love Your Spell Is Everywhere
TTITLE2=Work Song
TTITLE3=I Remember Clifford
TTITLE4=Straight No Chaser
TTITLE5=But Not For Me
TTITLE6=Alone Together
TTITLE7=Lotus Blossom
TTITLE8=Easy To Love
EXTD=YEAR: 1991
EXTT0=
EXTT1=
EXTT2=
EXTT3=
EXTT4=
EXTT5=
EXTT6=
EXTT7=
EXTT8=
PLAYORDER=
